<svg preserveAspectRatio="none" overflow="visible" style="display: block;" width="2632.33" height="316.329" viewBox="0 0 2632.33 316.329" fill="none" xmlns="http://www.w3.org/2000/svg">
<path id="Vector 4" d="M1.66445 11.7668C12.4278 3.48048 25.3137 1.80996 282.437 1.67378C539.56 1.53761 1026.18 2.89466 1272.11 4.66679C1518.04 6.43892 1523.13 8.5618 1496.19 21.753C1469.25 34.9442 1410.47 56.3037 1370.01 79.5314C1302.03 118.563 1245.54 163.242 1264.47 164.609C1273.44 165.257 1317.75 157.24 1423.03 126.592C1494.97 105.65 1601.05 71.1605 1657.53 54.3677C1719.66 35.8931 1757.4 24.2056 1777.35 42.7241C1781.64 46.7078 1785.14 52.503 1785.82 59.1017C1787.22 72.5512 1785.89 116.705 1764.38 180.264C1745.99 234.617 1731.35 269.256 1736.25 268.18C1738.73 267.635 1744.5 261.732 1756.16 252.599C1784.09 230.725 1826.56 197.284 1884.51 171.278C1912.75 158.604 1940.69 148.36 1985.87 144.973C2090.63 137.118 2159.83 139.684 2148.76 145.88C2068.25 190.931 2019.87 209.4 2019.54 244.884C2019.38 262.211 2018.57 277.496 2029.8 288.113C2032.57 290.737 2036.08 292.555 2043.93 292.435C2051.78 292.316 2063.62 290.32 2133.85 272.533C2204.07 254.747 2329.35 223.376 2394.35 204.271C2465.73 183.293 2484.67 177.205 2514.28 163.205C2557.45 142.797 2596.06 124.173 2620.88 104.28C2634.59 93.2857 2649.19 79.3343 2549.48 74.3822C2449.76 69.4302 2242.02 73.3585 2088.28 84.1573C1934.53 94.9561 1837.72 112.106 1760.38 131.271C1683.05 150.437 1626.89 170.995 1553.17 205.2C1479.45 239.406 1390.85 285.851 1338.71 314.664" stroke="#393939" stroke-width="3.32873" stroke-linecap="round"/>
</svg>
